<svg xmlns="http://www.w3.org/2000/svg" viewBox="0 0 64 64">
  <defs>
    <linearGradient id="horn" x1="0" y1="0" x2="0" y2="1">
      <stop offset="0%" stop-color="#fbbf24"/>
      <stop offset="100%" stop-color="#f59e0b"/>
    </linearGradient>
    <linearGradient id="body" x1="0" y1="0" x2="1" y2="1">
      <stop offset="0%" stop-color="#e84142"/>
      <stop offset="50%" stop-color="#a855f7"/>
      <stop offset="100%" stop-color="#ec4899"/>
    </linearGradient>
    <linearGradient id="mane" x1="0" y1="0" x2="1" y2="0">
      <stop offset="0%" stop-color="#7c3aed"/>
      <stop offset="100%" stop-color="#ec4899"/>
    </linearGradient>
  </defs>
  <!-- Background circle -->
  <circle cx="32" cy="32" r="30" fill="#0f0f14" stroke="url(#body)" stroke-width="2"/>
  <!-- Horn -->
  <polygon points="32,4 28,22 36,22" fill="url(#horn)"/>
  <!-- Head -->
  <ellipse cx="32" cy="30" rx="14" ry="12" fill="url(#body)"/>
  <!-- Mane -->
  <path d="M18,28 Q14,20 20,16 Q16,24 22,26" fill="url(#mane)" opacity="0.8"/>
  <path d="M16,32 Q10,26 16,20 Q14,28 18,30" fill="url(#mane)" opacity="0.6"/>
  <!-- Eye -->
  <circle cx="28" cy="28" r="2.5" fill="white"/>
  <circle cx="28.5" cy="27.5" r="1.2" fill="#0f0f14"/>
  <!-- Nostril -->
  <ellipse cx="37" cy="33" rx="1" ry="0.8" fill="rgba(0,0,0,0.3)"/>
  <!-- Ear -->
  <polygon points="24,18 20,12 26,16" fill="url(#body)"/>
  <!-- Sparkles -->
  <circle cx="46" cy="14" r="1.5" fill="#fbbf24" opacity="0.9"/>
  <circle cx="50" cy="22" r="1" fill="#fbbf24" opacity="0.7"/>
  <circle cx="14" cy="44" r="1.2" fill="#a855f7" opacity="0.8"/>
  <circle cx="52" cy="42" r="1" fill="#ec4899" opacity="0.7"/>
  <!-- Text -->
  <text x="32" y="52" text-anchor="middle" fill="white" font-family="Arial,sans-serif" font-size="10" font-weight="bold" letter-spacing="1">UNY</text>
</svg>
